<?xml version="1.0" standalone="no"?>
<!DOCTYPE svg PUBLIC "-//W3C//DTD SVG 20010904//EN"
 "http://www.w3.org/TR/2001/REC-SVG-20010904/DTD/svg10.dtd">
<svg version="1.0" xmlns="http://www.w3.org/2000/svg"
 width="1024.000000pt" height="1024.000000pt" viewBox="0 0 1024.000000 1024.000000"
 preserveAspectRatio="xMidYMid meet">
<metadata>
Created by potrace 1.14, written by Peter Selinger 2001-2017
</metadata>
<g transform="translate(0.000000,1024.000000) scale(0.100000,-0.100000)"
fill="#000000" stroke="none">
<path d="M5072 10208 c-6 -14 -30 -85 -52 -158 -42 -132 -62 -172 -36 -69 8
30 13 55 12 57 -5 4 -160 -315 -623 -1283 -251 -522 -594 -1238 -763 -1590
-424 -881 -560 -1166 -560 -1170 0 -2 -61 -128 -135 -280 -74 -152 -135 -278
-135 -279 0 -2 -34 -73 -75 -159 -75 -157 -81 -172 -67 -164 4 3 63 7 132 11
168 9 268 16 310 23 19 3 46 6 58 7 13 1 32 12 41 25 13 17 20 20 25 12 6 -9
11 -9 22 0 8 6 14 8 14 3 1 -5 10 2 20 15 11 13 20 18 20 12 0 -6 7 -8 15 -4
22 8 13 13 -29 17 -22 2 -36 -1 -36 -8 0 -7 -4 -6 -9 2 -11 19 -15 19 -34 3
-14 -11 -18 -11 -23 4 -5 13 -9 14 -15 3 -7 -10 -9 -10 -9 0 0 6 1 14 3 15 1
2 -5 12 -13 23 -14 17 -14 18 2 6 14 -11 18 -10 27 6 6 11 7 23 3 27 -4 5 -2
5 4 2 7 -4 17 0 24 8 7 8 9 15 6 15 -4 0 -2 8 3 18 7 13 6 23 -2 33 -7 7 -2 5
11 -6 l23 -19 -5 27 c-3 15 -1 25 4 22 5 -3 18 4 29 16 15 16 18 26 10 35 -8
9 -4 12 16 9 18 -2 25 2 21 11 -3 7 -1 16 5 20 6 3 8 13 5 21 -4 8 -1 11 5 8
6 -4 8 -13 5 -21 -3 -7 -1 -16 4 -19 6 -4 10 -12 9 -18 0 -8 -3 -7 -6 2 -3 8
-16 -4 -33 -34 -15 -26 -29 -42 -31 -36 -3 7 -9 7 -19 1 -13 -8 -12 -10 3 -10
9 0 17 -4 17 -10 0 -5 -6 -7 -14 -4 -9 3 -17 -3 -21 -17 -6 -17 -9 -19 -16 -8
-7 10 -8 5 -5 -14 3 -16 1 -25 -5 -21 -5 3 -8 2 -7 -3 1 -4 -4 -19 -12 -33
-17 -30 -26 -74 -10 -50 5 8 15 15 22 15 7 0 14 6 14 13 1 6 2 17 3 23 0 5 7
7 14 3 6 -4 9 -4 5 1 -4 4 -3 14 4 22 6 8 7 13 2 11 -5 -2 -9 2 -9 7 0 6 3 9
7 8 4 -2 5 3 2 11 -4 10 5 12 34 11 32 -1 39 2 37 14 -2 9 -4 20 -4 25 -1 6
-8 1 -16 -10 -18 -23 -19 -14 -3 21 l12 26 12 -23 12 -23 7 27 c7 25 18 30 42
15 6 -4 14 -3 18 3 4 6 10 8 15 5 10 -6 8 15 -3 32 -4 6 -3 14 2 17 5 4 12 0
15 -6 4 -9 5 -8 5 2 -2 30 1 41 11 35 5 -3 8 -11 6 -18 -1 -7 -1 -9 1 -4 3 4
10 4 16 0 7 -3 9 -2 4 2 -4 5 0 16 9 26 10 11 12 19 5 24 -6 3 -11 11 -11 16
0 6 6 7 13 2 23 -14 35 -11 32 8 -2 10 0 21 6 24 5 4 9 12 9 18 0 7 -4 6 -10
-3 -6 -10 -9 -6 -8 18 1 18 5 29 11 25 6 -3 7 -1 3 5 -3 6 2 17 13 24 15 11
16 15 5 25 -14 14 -30 0 -19 -17 15 -24 -4 -7 -21 18 -13 19 -13 24 -2 15 23
-20 28 -5 12 39 -20 57 -16 61 7 8 16 -34 22 -41 29 -30 6 8 10 11 10 5 1 -15
24 28 25 45 0 8 -3 20 -7 26 -4 6 -2 11 7 11 8 0 12 -4 9 -9 -3 -4 0 -8 6 -8
8 0 10 9 6 26 -4 14 -3 23 2 20 5 -3 9 1 9 9 0 8 -3 12 -7 10 -9 -5 -7 36 3
51 3 6 3 14 0 18 -17 16 -9 38 19 52 16 8 31 14 33 12 8 -8 -8 -57 -18 -51 -6
3 -7 1 -3 -6 10 -15 26 -4 26 17 0 9 5 24 10 32 7 11 9 -2 6 -43 -2 -37 1 -62
9 -70 17 -17 15 -24 -75 -315 -83 -267 -100 -336 -50 -197 16 44 34 81 39 83
6 2 9 8 6 12 -3 5 0 12 6 16 8 4 9 3 5 -4 -4 -7 -2 -12 4 -12 6 0 9 -4 5 -9
-3 -5 -1 -12 4 -16 6 -3 8 6 5 22 -3 23 -2 25 7 10 5 -9 14 -15 19 -12 5 3 11
1 15 -5 4 -6 11 -8 16 -4 5 3 7 9 4 14 -3 4 3 14 13 21 15 13 16 12 3 -3 -10
-14 -10 -18 -1 -18 10 0 9 -4 -1 -17 -11 -15 -10 -14 9 1 23 20 30 32 10 20
-7 -5 -8 -3 -4 5 6 9 13 8 28 -6 21 -18 21 -18 8 7 -12 22 -12 24 2 12 13 -10
18 -10 24 -1 4 8 3 9 -4 5 -7 -4 -12 -2 -12 3 0 6 4 11 9 11 5 0 26 44 47 98
20 53 43 106 50 116 12 18 14 17 30 -17 10 -20 21 -34 26 -31 15 10 108 -7
105 -19 -3 -13 67 -29 71 -16 2 5 8 9 13 9 6 0 7 -5 4 -10 -4 -7 32 -10 112
-8 82 2 117 7 116 14 -2 12 84 30 95 20 3 -3 0 -6 -6 -6 -24 0 -11 -16 16 -19
29 -4 244 -5 825 -2 276 2 356 5 350 14 -4 7 0 7 10 -2 9 -7 17 -9 17 -3 0 5
8 8 19 5 10 -3 21 -1 24 4 3 5 -6 8 -21 8 -15 -1 -38 2 -52 6 l-25 7 25 1 c43
2 134 12 156 16 12 3 24 15 28 27 7 29 65 100 75 93 5 -2 13 6 19 19 9 21 18
24 62 24 35 1 59 7 73 19 21 18 21 18 7 -1 -14 -18 -13 -19 3 -13 10 4 20 7
21 7 2 0 2 16 0 35 -1 24 1 33 9 29 7 -3 1 3 -12 14 -15 12 -36 18 -59 17 -44
-3 -64 3 -55 18 3 6 1 7 -5 3 -6 -4 -17 2 -24 13 -12 20 -13 20 -29 -12 l-17
-32 -12 45 c-44 174 -60 197 -36 54 22 -135 20 -184 -9 -224 -14 -19 -25 -36
-25 -39 0 -3 7 3 16 14 8 11 23 30 34 42 10 12 16 24 13 27 -4 3 -1 6 4 6 23
0 19 -26 -10 -59 -16 -19 -36 -49 -43 -68 -9 -20 -23 -35 -39 -39 -32 -8 -493
1 -502 9 -3 4 46 8 110 8 64 1 131 3 147 4 17 1 71 3 120 4 50 0 90 4 90 9 0
4 -21 7 -48 6 -26 0 -50 2 -55 4 -7 3 -127 11 -234 15 -35 1 -63 5 -63 9 0 4
-13 3 -29 -2 -16 -4 -32 -5 -36 -2 -3 4 -81 7 -173 9 -116 1 -162 -1 -152 -8
12 -8 10 -9 -6 -4 -41 11 -84 13 -89 5 -3 -5 -16 -5 -30 0 -18 7 -25 6 -25 -3
0 -7 -3 -8 -8 -2 -9 12 -48 13 -59 1 -5 -5 -2 -6 6 -1 9 5 12 4 8 -2 -4 -6
-24 -7 -51 -3 -30 4 -47 3 -50 -4 -3 -7 -5 -6 -5 2 -1 7 -6 10 -11 7 -6 -4
-43 -7 -83 -8 l-72 -2 1 95 c0 105 11 135 52 152 49 19 146 37 157 28 17 -14
751 1 830 16 17 4 36 7 42 7 13 0 8 11 -5 13 -4 0 -47 4 -95 8 -48 5 -86 10
-85 12 2 1 64 5 138 8 188 9 217 13 223 35 5 20 -26 54 -39 43 -4 -4 -4 -2 0
5 3 6 2 14 -4 18 -6 4 -7 11 -4 17 5 7 2 8 -6 3 -10 -6 -12 -4 -7 8 4 11 2 14
-8 10 -8 -3 -12 -10 -9 -17 3 -6 -5 1 -18 15 -13 14 -32 25 -40 23 -11 -1 -15
3 -11 13 4 10 8 11 13 3 5 -9 9 -8 12 2 4 9 -3 15 -19 16 -13 1 -22 -2 -19 -6
3 -5 -1 -9 -9 -9 -10 0 -11 5 -4 19 6 10 15 15 21 12 7 -5 8 -2 4 5 -5 7 -11
10 -14 7 -3 -3 -11 -1 -19 5 -7 6 -13 8 -13 3 0 -5 -7 4 -15 20 -8 15 -12 33
-8 40 3 6 3 8 -2 4 -11 -11 -36 12 -28 25 3 6 1 7 -6 3 -6 -4 -9 -12 -6 -17 4
-5 1 -9 -5 -9 -6 0 -8 -5 -4 -11 5 -8 9 -8 14 1 6 9 11 7 19 -9 8 -15 9 -21 1
-21 -6 0 -8 -5 -4 -12 4 -7 3 -8 -4 -4 -6 4 -8 14 -5 23 4 10 2 14 -5 9 -6 -3
-13 -2 -17 4 -4 6 -11 8 -16 4 -5 -3 -9 -2 -8 3 4 23 -2 43 -11 38 -6 -4 -9
-1 -8 7 2 7 -2 12 -9 11 -8 -2 -10 11 -9 39 3 36 2 39 -8 19 -12 -21 -12 -21
-29 14 -19 40 -22 69 -7 60 6 -4 8 -10 5 -15 -3 -5 1 -22 10 -37 9 -16 13 -19
9 -8 -3 11 -8 29 -9 40 -2 11 -4 22 -5 25 -1 3 -2 8 -2 11 1 3 -5 6 -13 6 -8
0 -12 -4 -9 -9 3 -4 0 -8 -7 -8 -6 0 -9 8 -6 20 3 11 2 22 -2 25 -4 2 -8 -11
-8 -30 0 -19 3 -32 6 -31 3 2 6 -20 6 -50 0 -42 -2 -51 -11 -39 -6 8 -10 27
-7 43 3 23 2 24 -6 7 -8 -18 -10 -18 -12 -2 -2 24 -3 27 -18 70 -7 21 -10 45
-7 53 3 8 2 13 -3 10 -9 -6 -20 26 -37 114 -10 51 -37 145 -44 153 -4 5 -4
-13 1 -39 5 -26 7 -50 4 -52 -3 -3 -5 1 -5 9 0 8 -6 25 -13 40 -8 14 -13 33
-11 42 1 9 -1 17 -5 17 -4 0 -8 6 -9 13 -2 28 -14 72 -23 83 -5 6 -10 23 -11
37 -1 14 -6 23 -10 21 -5 -3 -5 -10 -2 -16 4 -7 2 -8 -4 -4 -9 5 -9 13 0 29
10 21 10 21 -7 7 -17 -14 -18 -14 -5 10 13 24 12 24 -5 10 -17 -14 -18 -14 -5
10 l13 25 -23 -20 -23 -20 19 30 c10 16 13 26 7 22 -7 -5 -14 -3 -14 2 -3 20
-5 26 -15 45 -10 16 -12 17 -17 2 -5 -11 -3 -15 5 -10 7 5 8 3 3 -6 -6 -9 -4
-11 6 -5 8 5 11 5 7 0 -4 -4 -3 -16 2 -26 7 -12 6 -20 -2 -25 -6 -4 -8 -3 -5
3 9 14 -22 55 -35 47 -6 -4 -8 -3 -5 3 6 10 -26 66 -34 59 -3 -3 -6 5 -6 16
-2 16 6 10 27 -23 17 -24 30 -39 30 -34 -1 6 -7 19 -15 29 -12 16 -12 22 -2
35 11 14 10 15 -7 1 -18 -14 -19 -13 -13 3 4 10 3 16 -2 12 -12 -7 -19 4 -25
40 -3 16 -10 32 -17 35 -8 6 -7 9 2 13 8 3 9 6 2 6 -6 1 -9 11 -7 24 4 21 4
21 -6 2 -9 -17 -10 -15 -6 11 4 23 0 37 -14 49 -14 13 -17 22 -10 30 7 8 4 17
-9 29 -19 17 -19 17 -16 -1 2 -10 4 -19 5 -20 2 -2 4 -7 5 -13 1 -5 4 -12 5
-15 1 -3 3 -11 4 -17 1 -7 7 -12 14 -10 7 1 12 -2 12 -8 0 -5 -4 -10 -10 -10
-5 0 -2 -19 6 -42 9 -24 17 -52 18 -63 6 -54 19 -104 27 -99 5 3 7 -1 4 -8 -3
-7 4 -47 14 -88 11 -41 19 -76 17 -77 -4 -5 -41 91 -38 100 1 4 -2 7 -6 7 -5
0 -9 6 -9 13 0 6 -12 41 -27 77 -15 36 -32 81 -38 100 -5 19 -14 39 -19 44 -4
5 3 -28 17 -73 29 -93 27 -121 -1 -36 -11 30 -22 55 -25 55 -6 0 -8 7 -12 49
-1 11 -7 17 -12 14 -5 -4 -7 1 -3 11 4 9 3 15 -1 12 -4 -2 -32 64 -61 147 -30
83 -57 145 -59 139 -2 -7 -8 -9 -13 -6 -6 4 -6 10 0 18 8 9 2 26 -18 58 -16
26 -28 48 -25 50 2 3 -3 5 -11 5 -8 0 -12 -4 -9 -9 3 -4 -2 -8 -10 -8 -8 0
-20 -8 -25 -17 -6 -10 -11 -13 -11 -6 0 6 7 19 16 27 8 9 12 16 7 16 -4 0 0 5
10 11 9 5 17 15 17 22 0 20 -74 -68 -104 -124 -16 -30 -37 -61 -46 -70 -9 -9
-33 -74 -54 -145 -103 -354 -139 -474 -143 -471 -3 4 122 502 476 1897 245
964 291 1144 298 1150 3 3 3 -15 0 -40 -3 -25 -4 -39 -1 -32 3 6 11 9 16 6 7
-4 8 -2 4 4 -4 7 -3 12 3 12 5 0 8 15 6 33 -3 25 -2 28 6 12 10 -23 300 -1175
359 -1425 40 -169 288 -1157 295 -1175 4 -10 -3 76 -10 122 -2 13 2 26 8 29 7
4 9 4 5 -1 -4 -4 -1 -24 7 -44 8 -20 19 -76 25 -126 6 -49 13 -91 14 -93 2 -2
6 11 8 27 2 16 1 28 -3 26 -4 -3 -9 15 -10 39 -2 24 -1 42 4 39 4 -2 7 3 7 12
0 9 -4 14 -8 11 -9 -6 -10 60 0 69 3 3 5 -2 4 -12 0 -10 4 -19 9 -20 6 -2 10
3 10 10 1 6 7 11 14 9 9 -2 11 3 7 13 -3 10 -2 14 5 10 6 -4 8 -13 5 -21 -3
-8 0 -14 7 -14 8 0 8 -3 -2 -9 -11 -7 -11 -9 0 -14 8 -3 9 -6 2 -6 -6 -1 -9
-10 -5 -23 5 -20 6 -20 12 -4 4 12 46 -112 115 -335 141 -461 215 -720 209
-730 -2 -4 0 -10 6 -14 5 -3 10 -11 10 -18 0 -6 -6 -2 -14 8 -8 11 -12 23 -10
27 2 4 0 9 -6 13 -5 3 -10 -1 -10 -9 0 -8 -4 -18 -10 -21 -11 -7 -2 23 12 41
5 7 2 17 -8 25 -23 19 -44 20 -51 2 -5 -12 -7 -12 -15 -1 -6 8 -7 5 -2 -12 6
-21 5 -23 -8 -13 -11 10 -17 10 -28 0 -10 -10 -12 -8 -6 8 6 19 5 19 -8 2 -11
-14 -15 -15 -20 -5 -3 7 -3 0 0 -17 5 -24 3 -27 -6 -15 -9 12 -10 6 -5 -25 10
-62 114 -505 130 -555 8 -25 31 -112 51 -195 60 -252 94 -369 113 -388 17 -18
18 -17 17 21 -1 34 1 39 17 36 13 -2 17 1 13 12 -3 9 -2 12 5 9 6 -4 8 -13 5
-21 -3 -7 -1 -16 3 -18 15 -10 20 6 10 33 l-9 26 20 -25 20 -25 -10 30 -10 30
20 -25 20 -25 -10 30 -10 30 20 -25 20 -25 -10 28 c-5 16 -6 26 -2 23 4 -2 14
-1 22 5 13 7 13 9 1 9 -11 0 -10 4 5 16 10 8 13 12 5 8 -9 -5 -12 -3 -7 5 18
28 12 100 -15 191 -33 107 -45 185 -32 193 11 7 65 -252 69 -325 1 -26 5 -52
9 -58 7 -12 49 -166 58 -217 7 -34 2 -38 -38 -34 -11 2 -62 5 -113 8 l-93 5 7
-39 c3 -21 8 -41 10 -44 2 -3 57 -4 123 -1 l119 5 17 -27 c13 -20 24 -26 40
-22 58 15 172 24 318 25 76 1 116 5 112 11 -3 6 -2 10 4 10 5 0 12 -8 14 -17
4 -14 5 -12 6 5 1 16 -5 22 -20 22 -13 0 -18 4 -13 13 6 9 4 9 -7 1 -15 -12
-46 -11 -57 2 -4 4 1 4 11 1 9 -4 17 -2 17 4 0 6 5 7 12 3 6 -4 8 -3 4 4 -3 6
-15 9 -26 7 -26 -5 -36 13 -17 32 11 12 16 12 22 2 6 -8 4 -10 -6 -4 -8 5 -10
4 -6 0 4 -5 15 -10 23 -11 9 -1 13 0 10 3 -3 4 -1 12 5 19 5 7 6 15 2 17 -13
8 -6 166 7 183 7 8 9 14 5 14 -4 0 -1 8 6 17 12 14 12 15 0 9 -10 -7 -12 -3
-6 14 4 12 8 28 9 34 1 6 6 17 10 25 6 10 5 12 -2 7 -7 -4 -12 -1 -12 6 0 10
-2 10 -9 -1 -5 -7 -7 -28 -5 -45 3 -24 2 -26 -5 -11 -6 15 -8 7 -9 -30 -2
-125 -6 -184 -14 -179 -5 3 -17 0 -26 -8 -15 -12 -16 -11 -3 5 7 9 10 17 7 17
-4 0 -2 9 4 19 6 13 7 22 0 26 -6 3 -2 20 10 42 18 34 18 59 1 49 -4 -3 -8 1
-8 9 0 8 5 13 10 12 5 -1 12 4 15 12 3 8 0 11 -7 7 -8 -5 -8 0 -2 17 7 17 6
28 -2 36 -9 10 -9 12 2 9 7 -2 16 3 19 11 2 8 0 11 -5 8 -5 -3 -10 0 -10 8 0
11 4 12 14 4 16 -14 16 -9 3 26 -7 17 -7 24 0 20 6 -3 10 -12 10 -19 0 -8 6
-19 13 -25 10 -8 14 -7 14 4 0 8 -4 12 -9 9 -4 -3 -8 0 -8 5 0 6 6 11 13 11
10 1 -77 45 -123 63 -8 3 -10 6 -4 6 5 1 50 -12 99 -29 49 -16 90 -28 92 -26
2 2 -42 20 -97 41 -59 22 -96 41 -89 45 7 5 -3 12 -25 20 -21 7 -36 14 -34 16
2 2 56 -13 120 -34 103 -34 114 -36 110 -19 -4 15 -7 16 -13 5 -7 -10 -9 -10
-9 3 0 8 -17 24 -37 36 -74 39 -118 66 -148 87 -16 11 -30 19 -30 16 0 -2 -10
5 -22 15 -13 11 -23 28 -23 38 0 10 -4 15 -10 12 -5 -3 -10 -1 -10 5 0 6 -6 8
-12 4 -7 -4 -10 -4 -6 1 4 4 -1 15 -10 24 -10 9 -13 13 -8 9 16 -12 28 -9 20
5 -6 9 -4 9 8 -1 14 -11 18 -10 26 4 8 15 9 15 15 0 4 -10 3 -14 -2 -11 -5 3
-12 1 -16 -5 -4 -6 -11 -7 -17 -4 -7 4 -8 2 -4 -5 6 -9 11 -9 22 0 8 6 14 8
14 4 0 -5 9 0 20 10 20 19 28 9 10 -13 -5 -7 -3 -6 6 2 12 10 13 18 6 32 -9
17 -6 19 24 21 19 1 32 -2 29 -7 -3 -5 -1 -12 5 -15 6 -4 9 -1 8 5 -2 7 5 14
15 15 14 3 17 -1 13 -13 -5 -15 -4 -15 6 -2 14 16 48 23 48 10 0 -4 7 -10 15
-14 9 -3 15 0 15 10 0 9 -5 12 -12 8 -6 -4 -8 -3 -5 3 4 6 18 8 32 6 13 -3 23
-9 20 -13 -6 -9 21 -7 31 2 3 4 3 16 -1 28 -6 20 -7 21 -21 3 -13 -16 -13 -15
-4 10 11 32 5 51 -16 43 -7 -3 -19 1 -26 8 -8 7 -20 12 -29 11 -9 -2 -16 3
-16 11 0 11 3 11 16 1 12 -10 14 -9 8 6 -4 10 -7 21 -7 23 0 3 -6 2 -12 -2 -7
-4 -10 -4 -6 1 4 4 2 15 -5 24 -11 14 -10 15 7 1 18 -14 18 -13 11 9 -4 13 -8
29 -9 37 -1 7 -11 23 -21 34 -14 16 -16 21 -5 18 10 -2 14 4 12 17 -2 16 -1
17 7 5 6 -9 6 -18 0 -26 -7 -8 -6 -14 1 -19 5 -3 10 -1 10 6 0 15 11 6 14 -13
5 -27 49 -118 57 -118 5 0 8 -6 6 -12 -1 -7 5 -12 13 -10 8 2 12 0 8 -4 -4 -4
9 -37 28 -73 54 -99 60 -97 14 4 -69 151 -910 1832 -903 1805 5 -23 5 -24 -13
-10 -18 14 -18 14 -5 -3 11 -14 12 -20 2 -30 -10 -9 -12 -9 -9 3 2 9 -5 14
-21 15 -13 0 -26 7 -28 15 -4 13 -3 13 6 0 8 -12 10 -11 8 8 -1 14 -5 18 -11
12 -13 -13 -29 -13 -21 -1 3 5 0 13 -6 17 -8 4 -9 3 -5 -4 4 -7 2 -12 -4 -12
-6 0 -9 -4 -5 -9 3 -5 0 -13 -6 -17 -7 -4 -9 -3 -6 3 4 6 0 16 -8 23 -8 7 -15
9 -15 5 0 -4 -6 -2 -13 4 -8 6 -17 7 -21 3 -4 -4 -7 -2 -5 3 3 15 -21 69 -27
62 -4 -3 -21 10 -39 29 -21 22 -36 31 -40 24 -8 -13 -45 15 -45 33 0 6 6 3 13
-8 11 -14 16 -15 22 -5 5 8 4 11 -2 7 -6 -4 -14 0 -17 9 -6 15 -8 15 -25 0
-18 -16 -18 -15 -14 19 2 21 -1 35 -7 35 -6 0 -9 4 -6 9 3 5 -1 12 -10 15 -9
4 -14 13 -10 22 3 8 2 12 -4 9 -6 -3 -10 3 -10 15 0 11 -7 23 -16 27 -13 5
-13 7 -2 14 10 6 8 9 -7 9 -17 0 -17 2 -5 10 12 8 12 10 -5 10 -17 0 -17 2 -5
10 12 8 12 10 -5 10 -17 0 -17 2 -5 10 11 7 11 10 2 10 -7 0 -10 5 -7 10 3 6
1 10 -5 10 -6 0 -8 5 -5 10 3 6 2 10 -2 10 -5 0 -9 8 -10 18 -1 9 -4 26 -6 37
-3 11 -6 25 -6 30 -1 6 -6 3 -11 -5 -8 -12 -10 -10 -10 8 0 14 4 21 11 16 8
-4 8 -1 1 12 -6 11 -10 22 -11 27 -1 4 -1 8 -2 10 -6 19 -11 46 -12 65 0 12
-6 22 -11 22 -6 0 -4 5 4 10 9 6 11 10 3 10 -7 0 -10 7 -6 15 3 9 -3 26 -13
38 -12 14 -13 17 -3 9 13 -9 16 -9 16 3 0 8 -6 16 -12 19 -9 3 -14 61 -5 61 1
0 3 8 5 18 2 9 -1 15 -6 11 -5 -3 -6 -10 -3 -16 4 -7 2 -8 -5 -4 -6 4 -9 12
-5 17 3 5 0 17 -8 26 -9 12 -9 15 0 9 6 -4 12 -4 13 1 0 4 2 18 3 31 3 21 2
21 -17 5 -14 -13 -18 -13 -11 -3 12 20 12 120 0 112 -5 -3 -6 3 -2 14 6 15 5
17 -5 7 -7 -7 -18 -13 -23 -13 -6 0 -5 4 2 8 18 12 23 49 6 49 -10 0 -11 -4
-3 -13 7 -9 6 -14 -3 -20 -7 -4 -10 -3 -5 1 4 5 -1 17 -10 28 -10 11 -13 17
-7 14 14 -8 25 26 14 43 -6 9 -9 9 -13 -1 -3 -8 -6 2 -7 21 -2 32 -3 33 -10
10 l-8 -25 -1 27 c-1 16 -6 27 -13 25 -7 -1 -13 4 -14 11 -1 6 -3 14 -4 17 -1
3 -3 8 -5 13 -1 4 -5 14 -8 22 -3 8 -8 30 -11 48 -2 19 -7 37 -11 40 -3 4 -3
-9 0 -28 3 -23 2 -30 -4 -21 -5 7 -8 26 -7 42 2 20 -1 26 -9 19 -13 -11 -25
-3 -25 14 0 6 5 4 10 -4 8 -11 9 -7 4 15 -8 37 -14 44 -15 19 0 -10 -9 1 -19
26 -29 70 -23 26 14 -98 43 -145 30 -133 -19 18 -21 63 -41 117 -44 120 -3 3
-7 14 -9 25 -2 11 -6 27 -9 35 -3 8 -7 21 -9 28 -1 8 -6 17 -10 20 -4 4 -5 0
-1 -9 3 -9 0 -22 -6 -28 -9 -10 -9 -12 3 -9 10 2 15 -4 14 -19 0 -13 4 -23 10
-23 6 0 4 -5 -4 -10 -11 -7 -11 -10 -2 -10 7 0 10 -4 7 -10 -3 -5 0 -10 7 -10
9 0 9 -3 -2 -10 -11 -7 -11 -10 -2 -10 7 0 11 -4 8 -9 -4 -5 0 -12 6 -14 10
-4 10 -6 0 -6 -10 -1 -10 -5 2 -17 9 -8 16 -21 16 -27 0 -11 -35 32 -35 43 0
3 -3 10 -6 15 -10 15 -33 118 -32 138 0 9 -4 17 -8 17 -5 0 -8 3 -7 8 0 4 -1
14 -5 22 -3 8 -13 39 -22 68 -9 29 -19 52 -21 50 -2 -2 3 -26 11 -53 24 -80
15 -76 -11 5 -13 41 -58 190 -100 330 -41 140 -84 278 -94 305 -18 49 -18 50
-28 23z m553 -1208 c-3 -5 -12 -10 -18 -10 -7 0 -6 4 3 10 19 12 23 12 15 0z
m39 -117 c4 -9 1 -21 -5 -27 -9 -8 -10 -8 -5 2 4 7 2 19 -4 27 -7 9 -8 15 -2
15 5 0 13 -8 16 -17z m-7 -285 c-3 -8 -6 -5 -6 6 -1 11 2 17 5 13 3 -3 4 -12
1 -19z m97 -261 c5 4 6 3 2 -5 -4 -6 2 -46 14 -88 11 -42 19 -78 17 -80 -3 -4
-54 142 -63 181 -1 6 -16 58 -33 118 -43 149 -37 146 12 -6 25 -76 46 -125 51
-120z m276 -425 c0 -3 -8 2 -18 11 -10 10 -22 14 -26 10 -4 -5 -6 -1 -4 7 2 8
-2 14 -9 13 -7 -2 -10 3 -7 11 4 11 13 6 35 -16 16 -17 29 -33 29 -36z m17
-14 c-3 -8 -6 -5 -6 6 -1 11 2 17 5 13 3 -3 4 -12 1 -19z m-1369 -100 c11 -18
18 -37 14 -43 -13 -20 -10 -33 7 -30 14 3 23 -12 42 -68 13 -40 24 -78 25 -86
2 -7 7 -18 13 -24 6 -6 11 -16 11 -21 0 -6 -5 -4 -10 4 -8 13 -10 13 -10 -1 0
-9 7 -20 16 -23 9 -3 14 -12 11 -19 -2 -6 2 -25 10 -42 13 -27 13 -28 -2 -11
-8 11 -15 23 -15 26 0 4 -12 6 -27 5 -18 -1 -27 -7 -25 -16 2 -8 0 -10 -5 -6
-4 5 -7 12 -6 15 1 4 -4 14 -10 22 -10 13 -10 13 6 1 11 -9 17 -10 17 -2 0 20
-28 24 -59 8 -28 -14 -29 -14 -18 3 6 10 14 17 18 14 12 -7 27 20 24 46 -2 14
-4 30 -4 37 -1 6 -10 10 -22 8 -16 -3 -18 -1 -10 9 8 10 8 16 -3 25 -8 7 -12
20 -9 28 5 12 3 14 -8 8 -8 -4 -11 -4 -6 0 4 5 -5 21 -20 37 -15 15 -23 28
-20 28 4 0 3 8 -2 18 -7 13 -5 26 8 46 13 19 20 24 24 14 4 -9 6 -7 6 5 1 26
17 20 39 -15z m1594 -3 c3 -13 1 -22 -3 -19 -9 5 -13 44 -5 44 2 0 6 -11 8
-25z m-1657 -105 c10 -11 16 -20 13 -20 -3 0 -13 9 -23 20 -10 11 -16 20 -13
20 3 0 13 -9 23 -20z m-14 -17 c13 -16 12 -17 -3 -4 -10 7 -18 15 -18 17 0 8
8 3 21 -13z m1192 2 c4 -8 3 -16 -1 -19 -4 -3 -9 4 -9 15 -2 23 3 25 10 4z
m-1158 -24 c3 -5 2 -12 -3 -15 -5 -3 -9 1 -9 9 0 17 3 19 12 6z m6 -48 c13
-16 12 -17 -3 -4 -10 7 -18 15 -18 17 0 8 8 3 21 -13z m46 -40 c0 -9 -4 -10
-14 -2 -7 6 -13 12 -13 14 0 1 6 2 13 2 8 0 14 -6 14 -14z m-112 -63 c-3 -6 2
-22 13 -38 26 -37 34 -52 29 -52 -2 0 -16 18 -31 40 -23 35 -27 60 -10 60 3 0
2 -5 -1 -10z m-5 -80 c12 -17 40 -72 62 -123 42 -97 261 -737 254 -744 -2 -2
-14 26 -26 64 -22 65 -80 221 -103 273 -5 14 -10 28 -9 33 1 4 -3 7 -10 7 -6
0 -8 3 -5 7 4 3 3 11 -3 18 -5 6 -32 72 -60 146 -62 161 -115 266 -144 281
-18 10 -26 4 -69 -43 l-50 -53 23 44 c24 50 87 120 106 120 7 0 22 -14 34 -30z
m210 24 c0 -8 -19 -13 -24 -6 -3 5 1 9 9 9 8 0 15 -2 15 -3z m-540 -97 c0 -2
-7 -4 -15 -4 -8 0 -13 2 -10 5 2 3 -1 14 -7 26 -10 20 -10 20 11 -1 11 -12 21
-24 21 -26z m-15 -13 c9 1 21 9 26 17 7 11 9 11 9 1 0 -7 5 -10 10 -7 6 4 7
11 4 17 -4 6 -2 8 3 5 9 -5 11 -112 3 -112 -1 0 -3 -15 -4 -32 -2 -31 5 -37
11 -10 6 29 36 107 39 104 11 -11 -197 -813 -226 -873 -11 -23 -20 -47 -20
-54 0 -7 -3 -11 -6 -8 -3 3 2 32 10 64 8 33 17 82 20 109 l6 50 -22 -67 c-11
-38 -25 -68 -29 -68 -10 0 -8 22 3 30 4 3 -2 12 -14 19 -18 11 -20 11 -15 -2
3 -9 -5 -25 -21 -38 l-27 -24 22 25 c22 25 20 46 -4 45 -7 0 -13 -4 -12 -10 1
-5 6 -9 12 -7 6 2 5 -4 -3 -12 -13 -17 -25 -22 -16 -7 3 4 -6 19 -21 32 -24
22 -25 22 -19 4 5 -14 4 -17 -4 -9 -8 8 10 80 65 260 129 423 188 597 196 575
4 -11 15 -18 24 -17z m143 -139 c-3 -3 -9 2 -12 12 -6 14 -5 15 5 6 7 -7 10
-15 7 -18z m166 -48 c13 -17 39 -63 59 -102 57 -115 270 -635 263 -642 -2 -2
-10 13 -19 34 -33 83 -202 453 -244 535 -62 121 -98 168 -127 168 -26 0 -74
-48 -101 -100 -9 -17 -18 -30 -21 -30 -11 0 52 104 89 146 44 50 58 49 101 -9z
m-247 -89 c-3 -8 -6 -5 -6 6 -1 11 2 17 5 13 3 -3 4 -12 1 -19z m731 -13 c-3
-3 -9 2 -12 12 -6 14 -5 15 5 6 7 -7 10 -15 7 -18z m-1017 -225 c-11 -36 -20
-59 -20 -52 -1 18 33 136 36 126 2 -5 -6 -38 -16 -74z m-30 -101 c-5 -13 -10
-19 -10 -12 -1 15 10 45 15 40 3 -2 0 -15 -5 -28z m-22 -78 c-7 -23 -14 -39
-16 -37 -3 2 1 23 8 45 7 23 14 39 16 37 3 -2 -1 -23 -8 -45z m2208 -94 c10
-6 9 -14 -3 -32 -9 -14 -20 -22 -25 -19 -5 3 -9 -1 -10 -8 0 -10 -2 -10 -6 0
-2 6 -9 10 -14 6 -5 -3 -2 10 7 29 16 34 27 39 51 24z m-77 -48 c-13 -24 -22
-25 -13 -1 6 14 4 15 -8 5 -13 -10 -16 -10 -16 2 0 8 4 12 8 9 4 -2 10 0 14 6
12 19 26 0 15 -21z m-2115 -7 c-3 -3 0 -11 6 -18 7 -9 6 -14 -3 -20 -7 -4 -10
-3 -5 1 4 5 0 16 -8 25 -13 15 -13 17 0 17 8 0 13 -3 10 -5z m915 -137 c0 -5
-5 -3 -10 5 -5 8 -10 20 -10 25 0 6 5 3 10 -5 5 -8 10 -19 10 -25z m669 -20
c21 12 19 -13 -2 -31 -18 -16 -19 -16 -8 -1 12 15 9 21 -9 19 -3 0 -6 11 -7
26 -2 26 -2 26 8 4 5 -13 13 -21 18 -17z m-1700 -8 c0 -21 -1 -21 -9 -2 -12
28 -12 37 0 30 6 -3 10 -16 9 -28z m3138 -2 c0 -8 -4 -12 -9 -9 -5 3 -6 10 -3
15 9 13 12 11 12 -6z m-2992 -14 c-13 -11 -150 -22 -138 -10 4 4 37 10 73 12
36 2 67 4 70 5 2 1 0 -2 -5 -7z m42 -158 c-3 -10 -5 -2 -5 17 0 19 2 27 5 18
2 -10 2 -26 0 -35z m886 23 c8 5 9 4 2 -3 -5 -6 -21 -14 -33 -18 -23 -7 -24
-7 -5 12 10 10 20 15 21 11 2 -5 9 -5 15 -2z m-899 -45 c9 -16 13 -31 10 -34
-3 -2 -18 -60 -34 -127 -16 -67 -31 -125 -34 -128 -3 -2 -8 4 -12 14 -3 10
-11 32 -16 47 -6 15 -8 30 -4 34 3 3 6 1 6 -5 0 -7 8 -12 18 -12 14 0 15 2 2
10 -10 6 -11 10 -2 10 6 0 11 3 10 8 -1 4 4 24 11 44 7 21 9 43 5 49 -4 7 -3
9 3 6 6 -4 14 0 17 9 4 10 2 13 -7 9 -6 -4 -4 0 6 8 19 16 23 37 5 37 -6 0 -8
3 -5 6 3 4 2 15 -4 25 -6 13 -6 19 0 19 6 0 17 -13 25 -29z m3003 -65 c4 -5
-3 -5 -17 -1 -42 13 -70 24 -70 29 0 6 78 -18 87 -28z m58 -14 c-3 -3 -11 0
-18 7 -9 10 -8 11 6 5 10 -3 15 -9 12 -12z m-780 -43 l20 -8 -20 1 c-11 0 -42
6 -70 13 l-50 14 50 -6 c28 -3 59 -9 70 -14z m-2208 -121 c-2 -24 -4 -5 -4 42
0 47 2 66 4 43 2 -24 2 -62 0 -85z m1837 113 c3 -5 -1 -11 -9 -14 -9 -4 -12
-1 -8 9 6 16 10 17 17 5z m931 0 c3 -5 2 -12 -3 -15 -5 -3 -9 1 -9 9 0 17 3
19 12 6z m-3375 -76 c0 -2 -10 -9 -22 -15 -22 -11 -22 -10 -4 4 21 17 26 19
26 11z m1579 -189 c-7 -8 -698 -10 -706 -3 -3 4 155 7 352 7 197 0 356 -2 354
-4z m1728 -38 c-3 -7 -5 -2 -5 12 0 14 2 19 5 13 2 -7 2 -19 0 -25z m-3295 2
c10 -10 14 -22 9 -24 -4 -3 -13 6 -19 19 -14 30 -12 31 10 5z m2 -87 c-2 -49
-2 -47 -18 -34 -18 15 -32 -4 -17 -23 8 -10 8 -16 -2 -25 -19 -15 -28 -3 -21
28 4 20 1 18 -11 -9 -9 -19 -23 -42 -31 -51 -11 -12 -12 -19 -4 -24 8 -5 8
-11 -1 -21 -6 -7 -16 -11 -23 -7 -22 14 -37 11 -45 -9 -6 -17 -9 -18 -13 -6
-7 16 4 40 18 39 12 0 5 60 -9 79 -6 8 -7 12 -3 8 5 -4 16 -2 25 4 13 10 14
10 4 -1 -7 -9 -9 -21 -3 -36 5 -13 6 -26 2 -31 -4 -4 -2 -4 5 0 6 3 10 16 8
27 -2 11 1 31 7 45 l12 25 13 -23 c7 -13 12 -17 13 -10 0 7 -5 22 -10 32 -7
13 -7 21 0 25 6 4 10 3 9 -2 -3 -20 2 -34 10 -28 6 3 8 15 6 26 -4 17 -2 19
10 9 17 -14 20 1 4 17 -8 8 -7 13 2 18 7 5 10 4 6 -1 -3 -5 1 -18 10 -29 14
-19 14 -18 10 13 -3 18 -1 30 4 26 11 -6 12 8 2 22 -5 5 1 -1 12 -13 13 -15
20 -35 19 -60z m3258 -8 c-17 -36 -33 -65 -36 -65 -2 0 10 31 27 69 18 38 33
68 36 66 2 -2 -10 -33 -27 -70z m-67 -125 c-14 -27 -28 -50 -30 -50 -3 0 6 23
20 50 14 28 28 50 30 50 3 0 -6 -22 -20 -50z m-2999 10 c0 -12 -4 -16 -9 -11
-5 5 -6 14 -3 20 10 15 12 14 12 -9z m3295 -53 c-10 -9 -11 -8 -5 6 3 10 9 15
12 12 3 -3 0 -11 -7 -18z m-345 -59 c-19 -27 -21 -19 -4 18 7 14 14 21 16 15
2 -6 -4 -21 -12 -33z m-329 -17 c0 -11 -5 -18 -9 -15 -4 3 -5 11 -1 19 7 21
12 19 10 -4z m310 -33 c-3 -8 -6 -5 -6 6 -1 11 2 17 5 13 3 -3 4 -12 1 -19z
m-3412 -31 c-8 -13 -13 -26 -10 -29 3 -2 -2 -5 -9 -5 -12 0 -11 7 5 29 24 34
36 38 14 5z m3801 5 c-3 -3 -1 -11 5 -18 7 -8 7 -14 -1 -19 -5 -3 -10 1 -10
10 0 9 -4 14 -9 11 -8 -5 -8 6 -2 32 1 2 6 0 12 -3 6 -4 8 -10 5 -13z m-3763
-87 c-3 -9 -8 -14 -10 -11 -3 3 -2 9 2 15 9 16 15 13 8 -4z"/>
<path d="M4646 7805 c-3 -9 -10 -14 -15 -10 -14 8 -31 -28 -21 -45 5 -8 7 -17
4 -21 -2 -4 12 -21 31 -38 20 -17 30 -33 24 -37 -7 -4 -5 -12 5 -23 9 -10 13
-21 9 -26 -5 -4 -3 -5 4 -1 14 8 37 -29 28 -45 -4 -5 -2 -15 3 -22 6 -7 11
-16 12 -22 8 -35 50 -54 57 -25 4 13 3 13 -6 0 -10 -13 -11 -13 -12 0 -7 55
-8 67 -12 80 -3 8 -8 30 -12 48 -4 18 -12 35 -16 38 -5 3 -9 14 -9 24 0 10 -4
21 -9 24 -4 3 -6 -5 -4 -17 2 -12 -3 -31 -11 -42 -15 -19 -16 -19 -6 8 7 20 7
34 0 45 -9 14 -10 12 -5 -8 4 -18 3 -21 -4 -10 -17 28 -17 95 1 84 7 -4 8 -3
4 5 -4 6 -12 8 -18 5 -7 -5 -9 -2 -6 8 4 8 3 20 -2 27 -5 10 -9 9 -14 -4z m9
-32 c0 -16 2 -43 6 -60 4 -19 3 -30 -2 -27 -5 3 -9 17 -10 32 0 24 -1 25 -9 7
l-9 -20 -1 20 c-2 11 -2 26 -1 34 2 7 -2 10 -8 6 -7 -4 -8 0 -4 10 4 12 8 13
13 5 5 -8 9 -7 13 4 9 23 13 20 12 -11z m74 -141 c-1 -10 3 -30 10 -47 16 -38
24 -108 10 -82 -6 9 -9 23 -7 30 5 19 -33 97 -44 91 -5 -3 -4 3 3 14 15 23 31
19 28 -6z"/>
<path d="M4636 7753 c-6 -14 -5 -15 5 -6 7 7 10 15 7 18 -3 3 -9 -2 -12 -12z"/>
<path d="M4197 7328 c7 -8 9 -19 5 -24 -4 -4 0 -3 9 4 9 6 18 11 20 9 2 -1 3
0 1 3 -2 3 -7 5 -10 5 -4 0 -14 4 -22 10 -12 7 -13 6 -3 -7z"/>
<path d="M4251 7329 c0 -9 5 -21 12 -27 10 -8 13 -5 14 16 1 23 0 24 -6 7 l-8
-20 -5 20 c-4 14 -6 15 -7 4z"/>
<path d="M4115 6629 c-4 -6 -5 -12 -2 -15 2 -3 7 2 10 11 7 17 1 20 -8 4z"/>
<path d="M4055 6619 c7 -11 -18 -27 -38 -24 -9 2 -23 -5 -30 -16 -8 -10 -17
-16 -20 -12 -4 4 3 18 15 32 l23 26 -26 -23 c-14 -12 -26 -30 -26 -40 0 -24
17 -43 31 -35 16 11 56 11 62 1 3 -4 11 -8 17 -8 7 0 6 4 -3 10 -8 5 -10 10
-4 10 7 0 9 11 6 26 -4 21 -2 25 9 19 11 -7 12 -6 2 6 -9 11 -9 19 -2 26 6 6
5 10 -5 10 -8 0 -13 -4 -11 -8z m-3 -51 c-5 -30 -6 -31 -13 -10 -11 29 -18 28
-12 0 4 -22 4 -22 -8 -4 -11 18 -12 18 -29 -4 -15 -20 -18 -20 -23 -6 -4 10
-3 14 3 11 5 -3 14 3 20 14 6 12 18 18 30 16 11 -2 22 0 25 6 10 16 12 10 7
-23z"/>
<path d="M6144 6542 c3 -6 2 -13 -4 -17 -5 -3 -10 0 -10 7 0 8 -5 6 -11 -5 -6
-10 -8 -21 -5 -24 3 -4 6 0 6 8 0 10 2 11 8 2 6 -9 11 -7 20 7 8 14 9 21 0 26
-6 4 -8 3 -4 -4z"/>
<path d="M3479 5654 c-1 -5 -2 -18 -3 -29 -1 -14 -8 -20 -23 -19 -12 1 -22 -1
-21 -5 0 -3 -5 -21 -12 -40 -13 -33 -13 -33 -25 -11 -10 18 -13 20 -18 7 -3
-9 -4 -26 -2 -38 3 -13 -3 -32 -13 -43 -9 -11 -12 -16 -5 -13 6 4 14 3 18 -3
4 -6 11 -8 16 -4 6 4 6 10 -1 18 -7 10 -5 20 10 38 11 14 24 38 30 52 5 15 14
25 19 21 5 -3 13 -1 16 5 5 8 11 8 19 1 9 -8 12 -2 11 24 -2 32 -14 61 -16 39z
m-86 -119 c4 -8 3 -16 -1 -19 -4 -3 -9 4 -9 15 -2 23 3 25 10 4z"/>
<path d="M5426 9368 c3 -5 10 -6 15 -3 13 9 11 12 -6 12 -8 0 -12 -4 -9 -9z"/>
<path d="M5551 9158 c-1 -21 15 -32 25 -17 4 7 3 9 -4 5 -6 -3 -13 2 -15 11
-4 16 -5 16 -6 1z"/>
<path d="M5567 9109 c7 -9 9 -20 5 -25 -4 -4 1 -2 11 5 9 7 17 16 17 19 0 3
-3 2 -7 -1 -3 -4 -13 -1 -22 6 -14 10 -14 10 -4 -4z"/>
<path d="M5703 8675 c0 -8 4 -12 9 -9 5 3 6 10 3 15 -9 13 -12 11 -12 -6z"/>
<path d="M4695 8070 c-4 -6 -12 -7 -18 -4 -7 4 -9 4 -5 -1 4 -4 3 -14 -4 -22
-8 -10 -8 -17 1 -26 10 -9 11 -8 6 8 -6 19 -5 19 13 -2 l19 -21 -1 39 c-1 42
-2 44 -11 29z m2 -25 c0 -8 -4 -12 -9 -9 -5 3 -6 10 -3 15 9 13 12 11 12 -6z"/>
<path d="M6083 7890 c8 -14 18 -25 23 -25 5 0 14 -3 20 -7 6 -4 11 -1 11 7 0
8 -3 13 -5 10 -3 -3 -11 0 -19 6 -7 6 -13 8 -13 3 0 -4 -7 1 -16 12 -15 18
-15 17 -1 -6z"/>
<path d="M5833 7624 c8 -14 -16 -37 -29 -26 -4 4 -3 0 4 -9 7 -9 10 -31 7 -50
-4 -29 -3 -30 4 -9 9 24 9 23 11 -10 l3 -35 7 35 c5 22 8 28 10 15 1 -11 1
-24 0 -30 -1 -5 2 -7 6 -3 4 4 12 0 19 -8 11 -15 12 -15 12 0 0 9 -4 16 -8 16
-4 0 -5 10 -3 23 4 20 4 20 -4 2 -8 -18 -10 -16 -18 15 -4 19 -8 43 -8 52 -1
9 -5 20 -10 25 -5 4 -6 3 -3 -3z m5 -65 c-3 -8 -7 -3 -11 10 -4 17 -3 21 5 13
5 -5 8 -16 6 -23z"/>
<path d="M5833 7465 c0 -8 4 -12 9 -9 5 3 6 10 3 15 -9 13 -12 11 -12 -6z"/>
<path d="M5305 6595 c4 -11 8 -25 8 -31 0 -6 6 -11 13 -11 9 0 8 7 -4 26 -22
35 -27 40 -17 16z"/>
<path d="M5423 6494 c-3 -8 3 -25 14 -37 11 -12 22 -27 24 -34 2 -7 9 -1 16
12 6 15 7 27 2 31 -5 3 -8 2 -7 -3 2 -4 -1 -8 -7 -8 -5 0 -9 3 -7 8 1 4 -4 6
-10 5 -8 -2 -13 7 -12 20 1 26 -4 28 -13 6z"/>
<path d="M5787 6340 c2 -24 7 -48 10 -52 7 -13 20 -1 26 24 6 23 6 23 -9 3
-15 -19 -15 -17 -10 20 4 25 3 35 -3 26 -7 -11 -10 -10 -14 5 -3 10 -3 -1 0
-26z"/>
<path d="M5726 6265 c7 -64 13 -85 25 -85 6 0 7 6 4 13 -4 6 7 -3 24 -21 31
-32 33 -31 33 17 1 22 2 23 13 7 17 -22 67 -17 71 8 2 14 0 15 -12 5 -17 -14
-19 2 -1 21 9 11 8 11 -7 0 -18 -13 -19 -13 -14 1 5 13 1 16 -22 14 -37 -3
-50 -13 -43 -31 5 -13 3 -14 -13 -6 -10 5 -23 9 -29 9 -5 -1 -15 21 -22 48
l-13 50 6 -50z m133 -55 c11 -22 10 -23 -2 -8 -8 10 -17 15 -21 11 -4 -4 -4 1
0 10 7 20 7 20 23 -13z"/>
<path d="M5636 6291 c-3 -4 1 -16 8 -26 10 -14 15 -15 21 -5 5 9 4 11 -3 6
-11 -6 -16 6 -13 27 1 10 -7 9 -13 -2z"/>
<path d="M7031 6204 c5 -15 7 -29 5 -32 -6 -5 20 -58 32 -66 5 -3 9 1 9 9 0 8
-5 11 -10 8 -6 -4 -8 1 -4 11 4 9 3 15 -3 11 -5 -3 -8 3 -8 12 1 20 -19 73
-27 73 -2 0 0 -12 6 -26z"/>
<path d="M4827 6018 c-5 -3 -17 -4 -26 -1 -14 4 -14 3 -1 -5 8 -6 20 -7 29 -2
8 4 24 5 35 0 12 -4 36 -6 54 -4 22 2 30 -1 25 -9 -5 -9 -3 -9 8 0 17 14 30
14 46 2 7 -7 14 -6 18 1 5 8 10 8 20 0 9 -8 15 -8 20 0 9 14 28 13 19 -2 -6
-10 -4 -10 7 0 15 14 33 16 25 3 -4 -5 5 -4 18 2 14 7 23 13 21 15 -2 2 -40 5
-84 7 -54 1 -81 -2 -81 -9 0 -8 -2 -8 -8 0 -7 12 -126 14 -145 2z m193 -4 c0
-8 -19 -13 -24 -6 -3 5 1 9 9 9 8 0 15 -2 15 -3z m40 0 c0 -8 -19 -13 -24 -6
-3 5 1 9 9 9 8 0 15 -2 15 -3z"/>
<path d="M5161 6014 c0 -11 3 -14 6 -6 3 7 2 16 -1 19 -3 4 -6 -2 -5 -13z"/>
<path d="M5180 6019 c0 -12 18 -20 24 -11 3 5 26 8 51 7 26 0 48 2 50 5 2 3
-25 6 -61 6 -35 0 -64 -3 -64 -7z"/>
<path d="M6896 5998 c3 -5 10 -6 15 -3 13 9 11 12 -6 12 -8 0 -12 -4 -9 -9z"/>
<path d="M7070 6001 c0 -6 4 -13 10 -16 6 -3 7 1 4 9 -7 18 -14 21 -14 7z"/>
<path d="M3625 5992 c-12 -8 -13 -27 -3 -38 4 -4 3 -13 -3 -21 -9 -9 -8 -13 0
-13 12 0 14 11 11 49 -1 16 2 21 11 16 8 -5 10 -4 5 3 -8 14 -8 14 -21 4z"/>
<path d="M7210 5911 c0 -6 4 -13 10 -16 6 -3 7 1 4 9 -7 18 -14 21 -14 7z"/>
<path d="M6858 5892 c9 -10 19 -17 21 -16 6 5 -20 34 -30 34 -5 0 -1 -8 9 -18z"/>
<path d="M3664 5875 c0 -13 3 -22 7 -19 8 4 6 30 -2 38 -3 3 -5 -5 -5 -19z"/>
<path d="M3901 5576 c-80 -277 -109 -382 -104 -388 4 -8 175 -3 273 7 25 2
324 5 665 6 341 1 631 6 645 10 14 4 -225 8 -530 8 -607 2 -639 3 -705 22 -34
10 -45 18 -46 34 -4 136 -33 300 -57 333 -12 15 -33 25 -69 31 l-51 8 -21 -71z"/>
<path d="M3285 5461 c3 -5 1 -12 -5 -16 -5 -3 -10 -11 -10 -18 0 -6 7 -2 15 9
17 23 19 34 4 34 -5 0 -8 -4 -4 -9z"/>
<path d="M6450 5439 c0 -5 5 -7 10 -4 6 3 10 8 10 11 0 2 -4 4 -10 4 -5 0 -10
-5 -10 -11z"/>
<path d="M6997 5405 c-4 -8 -2 -17 3 -20 6 -4 10 3 10 14 0 25 -6 27 -13 6z"/>
<path d="M6343 5371 c0 -11 5 -18 9 -15 4 3 5 11 1 19 -7 21 -12 19 -10 -4z"/>
<path d="M6996 5355 c-3 -8 -1 -15 4 -15 6 0 10 7 10 15 0 8 -2 15 -4 15 -2 0
-6 -7 -10 -15z"/>
<path d="M3167 5287 c-18 -24 -21 -34 -11 -34 8 0 12 2 9 5 -2 3 5 18 16 33
28 40 17 36 -14 -4z"/>
<path d="M6287 5231 c-7 -34 -3 -51 14 -51 11 0 11 37 0 65 -7 16 -9 14 -14
-14z"/>
<path d="M3501 5207 c-7 -21 -10 -41 -7 -44 8 -8 28 47 23 66 -2 9 -9 -1 -16
-22z"/>
<path d="M7094 5169 c3 -17 33 -20 33 -3 0 10 -4 11 -13 3 -8 -7 -14 -6 -17 1
-3 6 -5 6 -3 -1z"/>
<path d="M7588 5123 c7 -3 16 -2 19 1 4 3 -2 6 -13 5 -11 0 -14 -3 -6 -6z"/>
<path d="M2620 5091 c0 -6 37 -81 81 -168 45 -87 108 -210 140 -274 52 -103
64 -119 99 -137 22 -10 37 -15 34 -11 -3 5 2 9 10 9 8 0 18 -5 22 -12 4 -7 3
-8 -4 -4 -17 10 -15 1 2 -13 11 -9 16 -9 22 0 5 8 3 9 -6 4 -9 -5 -11 -4 -6 3
5 9 13 9 29 0 12 -7 25 -11 30 -10 4 1 7 -5 7 -14 0 -8 4 -13 9 -10 12 8 43
-29 34 -39 -5 -5 -1 -4 8 3 13 10 19 9 30 -5 13 -16 12 -17 -3 -4 -10 7 -18
11 -18 8 0 -3 27 -25 60 -48 33 -23 57 -46 54 -51 -3 -4 -2 -8 3 -7 21 4 34
-2 27 -13 -5 -7 -2 -9 9 -5 9 3 18 0 21 -9 4 -10 2 -13 -7 -8 -6 4 -1 -5 12
-19 25 -27 37 -35 26 -17 -3 6 -1 10 4 10 6 0 11 -4 11 -10 0 -5 6 -9 13 -7 7
1 11 -6 9 -17 -2 -10 1 -15 7 -12 6 4 8 -4 5 -21 -5 -26 -4 -26 9 -9 12 17 13
16 11 -13 -1 -17 2 -29 7 -26 4 3 6 13 3 23 -5 14 -4 14 4 2 6 -8 8 -18 6 -22
-3 -4 1 -8 8 -8 9 0 9 -3 -2 -10 -13 -8 -12 -10 3 -10 9 0 17 -4 17 -9 0 -5
11 -23 24 -39 17 -20 21 -29 11 -29 -8 0 -12 4 -9 8 2 4 0 10 -6 14 -5 3 -10
1 -10 -4 0 -6 -5 -11 -11 -11 -5 0 -7 6 -3 13 5 8 3 8 -9 -2 -14 -11 -18 -11
-23 2 -3 9 -12 13 -21 10 -9 -4 -14 -2 -11 3 4 5 -11 9 -32 9 -32 0 -37 -2
-27 -14 7 -8 11 -16 10 -18 -2 -1 -3 -11 -3 -20 0 -14 2 -15 9 -5 12 19 21
-31 9 -51 -5 -10 -4 -18 3 -23 7 -4 9 -3 5 4 -3 6 -1 14 6 18 7 4 10 4 6 -1
-4 -4 -2 -15 5 -23 9 -13 9 -14 0 -8 -8 4 -13 2 -13 -4 0 -6 -5 -8 -12 -4 -7
4 -8 3 -4 -5 4 -6 11 -9 16 -6 5 3 12 0 16 -6 4 -8 3 -9 -4 -5 -7 4 -12 2 -12
-4 0 -6 -5 -8 -12 -4 -7 5 -8 3 -2 -7 4 -8 10 -23 11 -33 2 -11 6 -22 10 -25
3 -3 4 3 1 15 -3 13 0 21 7 21 7 0 11 -6 8 -14 -3 -7 0 -20 6 -27 8 -10 9 -16
1 -21 -6 -3 -8 -10 -6 -14 3 -4 -1 -8 -9 -8 -8 0 -12 3 -10 7 2 4 -2 7 -9 7
-11 0 -12 -4 -3 -18 6 -9 19 -16 29 -14 10 2 16 0 13 -6 -4 -5 -11 -6 -17 -3
-7 5 -9 1 -5 -9 4 -10 2 -16 -6 -14 -7 1 -11 -8 -10 -23 1 -15 0 -18 -3 -7 -3
10 -13 16 -22 15 -10 -2 -16 3 -14 10 1 8 -2 11 -7 7 -6 -3 -2 -24 10 -53 11
-26 419 -847 907 -1825 720 -1446 888 -1774 894 -1756 9 24 1 86 -13 95 -5 3
-7 9 -5 13 3 4 -2 32 -10 62 -15 50 -23 142 -23 264 0 63 6 85 25 85 8 0 12 4
9 10 -4 6 1 7 11 3 12 -4 15 -3 10 5 -4 7 -2 12 4 12 6 0 9 4 6 8 -3 5 1 9 9
9 8 0 13 -2 10 -5 -2 -2 2 -11 10 -19 8 -8 15 -24 14 -36 l0 -22 -9 23 c-11
27 -10 27 -56 0 l-37 -22 7 -80 c3 -45 8 -111 9 -148 2 -38 7 -71 10 -75 4 -3
7 4 7 16 0 12 4 20 9 17 13 -8 0 37 -13 46 -7 5 -6 8 3 8 10 0 11 3 3 13 -7 8
-7 18 -2 27 9 13 10 13 10 0 0 -13 1 -13 10 0 6 9 10 10 10 3 0 -6 -4 -14 -9
-18 -5 -3 -7 -18 -5 -32 6 -33 14 -43 15 -20 2 18 5 36 9 40 1 1 3 16 4 32 1
17 8 40 14 51 6 12 9 24 6 27 -3 3 -3 15 1 28 6 17 9 19 16 8 12 -20 11 -37
-2 -19 -9 13 -10 13 -6 0 6 -23 30 -18 34 8 1 13 -1 21 -5 18 -4 -2 -8 6 -8
18 0 16 5 23 15 21 20 -3 22 -53 3 -76 -11 -15 -10 -19 10 -33 12 -9 18 -16
12 -16 -7 0 -9 -11 -6 -26 4 -20 2 -25 -8 -19 -8 5 -11 4 -7 -1 7 -12 -8 -223
-18 -249 -7 -18 -6 -18 8 -5 8 8 55 101 105 205 49 105 208 435 352 735 425
882 690 1443 690 1457 0 2 -4 2 -9 -1 -5 -3 -3 14 4 39 9 27 10 47 4 50 -5 4
-9 12 -9 18 0 7 4 6 10 -3 6 -10 10 -11 10 -2 0 19 -4 27 -13 24 -5 -1 -5 2
-2 8 4 6 9 9 13 6 11 -11 31 30 26 54 -4 17 -3 21 4 12 7 -11 10 -11 15 3 4 9
3 14 -2 11 -17 -11 -19 33 -2 46 14 11 14 11 3 -4 -11 -13 -11 -18 0 -24 7 -4
10 -3 5 1 -4 5 0 17 10 27 9 10 13 18 9 18 -4 0 -2 10 5 21 6 12 7 19 1 15 -5
-3 -13 1 -16 10 -9 24 -7 31 5 14 8 -12 9 -8 6 15 -5 26 -4 28 8 12 11 -16 13
-16 19 -2 3 9 2 14 -3 11 -5 -3 -12 1 -15 10 -9 24 -7 31 5 14 9 -12 10 -10 6
8 -5 20 -3 21 10 10 15 -12 15 -10 3 12 -13 24 -12 24 6 10 10 -8 16 -10 11
-5 -4 4 1 17 10 28 10 11 12 17 6 13 -7 -4 -13 -2 -13 4 0 6 -5 8 -11 4 -8 -4
-7 -9 2 -15 10 -6 10 -9 2 -9 -19 0 -24 17 -8 30 8 7 13 16 10 20 -3 5 -1 11
5 15 6 4 7 12 4 18 -4 7 -3 8 1 4 11 -10 16 -39 6 -32 -4 2 -8 -2 -8 -10 0
-11 4 -12 13 -4 7 6 11 19 8 30 -2 10 -6 27 -8 37 -3 11 1 19 10 19 10 0 11
-4 3 -13 -7 -8 -6 -14 2 -20 7 -4 9 -3 6 3 -4 6 0 16 7 23 16 12 14 44 -4 65
-8 9 -4 12 14 10 21 -3 24 0 20 23 -3 14 -7 29 -10 34 -3 4 -2 14 3 21 4 6 8
21 8 32 0 12 8 21 20 22 l20 3 -20 -10 c-17 -8 -17 -9 -2 -7 10 1 18 7 18 12
1 6 6 16 12 24 9 12 9 13 0 7 -8 -4 -13 -1 -13 9 0 10 5 13 13 9 6 -4 9 -3 4
1 -4 5 0 16 9 26 14 16 14 17 -3 14 -10 -1 -17 -9 -15 -16 2 -8 0 -10 -4 -6
-11 11 -14 38 -4 32 5 -3 11 -1 15 5 4 6 11 8 16 5 5 -3 6 1 3 9 -3 9 -10 16
-16 16 -5 0 -2 7 6 16 18 18 22 39 4 28 -7 -4 -8 -3 -4 5 4 6 13 8 19 4 7 -4
5 2 -3 12 -9 12 -10 16 -2 11 9 -6 12 -1 8 16 -5 27 19 67 27 46 3 -8 6 -6 6
5 1 12 6 16 14 11 6 -4 9 -4 5 1 -4 4 -2 15 5 23 8 11 2 9 -18 -4 -20 -12 -26
-14 -18 -4 6 8 11 17 11 20 -3 19 15 49 25 43 9 -5 9 -3 1 8 -8 9 -8 21 -3 34
9 18 9 18 5 -3 -2 -12 0 -20 5 -16 5 3 9 14 9 24 0 10 5 22 10 25 8 5 7 12 -2
23 -7 9 -8 13 -2 9 14 -8 46 57 33 70 -6 6 -2 17 11 30 14 15 16 23 7 26 -7 3
-4 6 7 6 13 1 17 6 13 21 -3 11 0 23 5 27 7 4 8 1 3 -7 -5 -9 -4 -11 4 -6 9 6
9 11 1 21 -7 9 -6 16 7 26 17 13 17 13 3 -6 -14 -19 -14 -19 3 -6 13 10 14 17
7 26 -8 9 -8 15 0 20 6 3 7 12 3 18 -4 7 2 5 12 -3 17 -14 18 -14 7 7 -9 16
-9 24 0 29 6 4 8 3 4 -4 -3 -6 -2 -13 3 -16 11 -7 9 13 -3 33 -6 10 -5 12 2 7
7 -4 12 -3 12 2 0 5 10 12 21 15 17 5 20 11 15 31 -3 14 -1 28 4 31 6 4 7 11
4 17 -5 7 -2 8 5 3 9 -5 10 -10 2 -18 -6 -6 -11 -16 -11 -21 0 -6 5 -3 11 7 6
10 15 14 22 10 9 -5 8 -2 0 9 -7 8 -11 17 -8 19 8 9 -40 8 -72 -1 -24 -6 -33
-5 -33 3 0 8 -3 8 -8 2 -12 -17 -32 -16 -32 2 0 9 3 13 7 10 3 -4 16 4 28 18
13 13 26 21 29 17 4 -3 4 2 0 12 -6 15 -4 17 6 11 10 -6 12 -4 6 10 -5 15 -4
16 8 6 11 -9 16 -9 22 0 4 8 3 9 -4 5 -18 -11 -14 2 7 23 11 11 23 16 27 13 5
-4 2 2 -6 13 -8 11 -11 17 -6 13 10 -8 36 14 29 25 -2 4 0 6 6 5 6 -2 21 8 33
22 13 14 19 19 13 10 -5 -8 15 9 45 38 30 28 59 52 65 52 17 1 57 39 51 49 -3
5 6 12 20 15 15 4 24 9 22 11 -2 2 -31 -4 -64 -14 -46 -14 -61 -15 -61 -6 0 8
7 11 15 7 11 -4 13 -1 7 8 -6 10 -4 12 9 7 9 -4 15 -3 12 2 -3 5 15 16 40 26
65 25 48 29 -21 5 -32 -11 -60 -19 -62 -17 -2 2 42 23 97 47 64 28 100 49 100
59 0 12 -3 11 -16 -5 -14 -18 -14 -18 -3 5 11 24 12 24 25 6 17 -23 18 -12 2
18 -10 20 -10 21 6 8 16 -13 17 -13 15 0 -1 7 1 22 5 31 6 14 11 15 21 5 7 -7
11 -16 8 -21 -3 -4 -9 -3 -13 4 -5 9 -9 9 -14 1 -4 -6 -2 -11 4 -11 6 0 9 -4
5 -9 -3 -5 0 -13 7 -17 7 -4 10 -4 6 1 -11 11 12 36 25 28 5 -3 7 -1 3 5 -3 6
-2 13 4 17 5 3 10 0 11 -7 0 -7 7 1 14 17 10 23 10 34 2 45 -10 13 -10 13 6 1
20 -15 23 -2 5 19 -11 12 -10 12 2 3 8 -6 19 -11 25 -11 5 0 11 -6 13 -14 3
-10 2 -10 -6 1 -7 9 -9 3 -8 -23 1 -19 6 -39 11 -43 4 -5 5 -3 1 4 -3 6 -2 14
3 17 11 7 85 144 125 231 l26 58 -82 -6 c-46 -4 -128 -9 -183 -12 -55 -3 -131
-8 -168 -10 -50 -4 -66 -2 -61 6 5 8 -3 10 -27 6 -40 -7 -365 -22 -426 -20
-39 1 -44 -1 -49 -25 -9 -43 -12 -49 -13 -24 l-1 22 -140 -4 c-78 -3 -145 -8
-149 -11 -5 -3 -71 -8 -148 -12 -106 -5 -146 -10 -173 -25 -19 -10 -49 -18
-66 -18 -49 0 -124 -12 -124 -20 0 -4 6 -7 13 -8 13 -2 408 -13 446 -12 23 0
23 -2 17 -52 -4 -29 -25 -143 -47 -254 -21 -110 -39 -213 -40 -230 0 -28 -1
-27 -22 16 l-22 45 -97 0 c-77 0 -100 3 -110 16 -7 9 -22 19 -32 23 -19 7 -19
6 -1 -14 10 -11 16 -22 14 -24 -6 -6 -54 38 -61 56 -10 24 -66 28 -413 27
-363 0 -341 -1 -457 4 -48 2 -85 0 -82 -5 3 -4 -115 -7 -263 -7 -147 1 -250 5
-228 9 22 4 36 8 30 9 -5 2 22 13 60 26 l70 23 -222 1 -223 0 0 -36 c0 -29 -3
-34 -12 -25 -7 7 -19 12 -29 12 -12 0 -15 6 -11 28 4 23 3 25 -10 15 -8 -7
-17 -11 -20 -8 -3 3 -20 0 -38 -7 -30 -10 -32 -12 -14 -19 14 -6 9 -8 -20 -8
-33 -1 -37 1 -26 14 7 8 9 15 5 15 -4 0 -15 -10 -25 -22 -15 -19 -15 -24 -4
-36 22 -22 16 -65 -13 -92 -15 -14 -23 -19 -19 -12 12 20 -3 35 -22 20 -10 -7
-14 -9 -10 -4 4 5 1 21 -7 36 -8 15 -11 30 -8 34 4 3 1 6 -5 6 -7 0 -11 3 -10
8 3 13 -14 77 -26 91 -6 8 -10 15 -8 15 3 1 -4 38 -15 79 -2 9 -9 14 -15 11
-7 -4 -8 -2 -4 5 4 6 0 37 -9 69 -10 31 -19 65 -21 75 -2 10 -6 27 -9 37 -7
22 -14 54 -22 95 -2 17 -10 36 -16 44 -10 12 -9 13 1 7 11 -7 12 -4 3 11 -6
11 -7 23 -4 27 3 3 -18 6 -48 7 -30 1 -78 3 -107 4 -49 3 -52 2 -46 -17 5 -17
3 -18 -14 -9 -28 15 -35 14 -28 -4 4 -12 0 -14 -17 -10 -12 3 -67 7 -122 10
-55 3 -122 8 -150 10 -27 3 -95 7 -150 9 -55 3 -162 8 -237 11 -94 5 -138 3
-138 -4z m663 -48 c-7 -2 -21 -2 -30 0 -10 3 -4 5 12 5 17 0 24 -2 18 -5z
m4045 -48 c-3 -3 -9 2 -12 12 -6 14 -5 15 5 6 7 -7 10 -15 7 -18z m141 -1 c-4
-5 -30 -11 -56 -12 -36 -1 -43 1 -28 8 18 8 17 9 -8 9 -19 1 -26 -3 -21 -11 4
-7 3 -8 -4 -4 -28 17 -7 25 57 23 48 -1 66 -5 60 -13z m-1109 -63 c0 -15 -33
-22 -44 -10 -8 9 -7 10 6 6 10 -3 20 -2 23 3 8 12 15 13 15 1z m1110 -69 c0
-5 -7 -17 -15 -28 -14 -18 -14 -17 -4 9 12 27 19 34 19 19z m-82 -38 c-3 -14
-5 -12 -10 9 -3 19 -2 25 4 19 6 -6 8 -18 6 -28z m-27 1 l9 20 -3 -20 c-2 -22
-21 -24 -23 -3 0 7 1 6 4 -2 4 -12 7 -11 13 5z m-860 -161 c-10 -44 -22 -99
-26 -124 -13 -78 -16 -94 -21 -100 -5 -4 2 67 12 125 10 55 46 186 51 182 2
-3 -5 -40 -16 -83z m-3461 -125 c134 -75 189 -112 183 -122 -4 -6 -11 -4 -18
6 -7 9 -14 14 -17 11 -12 -11 -142 62 -133 76 2 3 -2 7 -9 7 -18 0 -136 74
-136 85 0 5 -4 7 -9 4 -5 -3 -12 1 -15 10 -4 12 7 8 41 -12 27 -15 77 -44 113
-65z m83 -16 c48 -30 87 -57 87 -60 0 -3 -10 1 -22 9 -13 8 -62 38 -110 67
-49 29 -88 55 -88 57 0 7 32 -11 133 -73z m-153 -3 c0 -5 -2 -10 -4 -10 -3 0
-8 5 -11 10 -3 6 -1 10 4 10 6 0 11 -4 11 -10z m3494 -106 c3 -8 2 -12 -4 -9
-6 3 -10 10 -10 16 0 14 7 11 14 -7z m-3124 -154 c0 -5 -2 -10 -4 -10 -3 0 -8
5 -11 10 -3 6 -1 10 4 10 6 0 11 -4 11 -10z m3568 -105 c-3 -3 -9 2 -12 12 -6
14 -5 15 5 6 7 -7 10 -15 7 -18z m-1272 -59 c7 -8 15 -23 17 -34 4 -29 36 -72
52 -72 14 0 30 27 51 85 23 62 9 -48 -45 -361 -34 -192 -90 -529 -126 -749
-36 -220 -88 -530 -115 -690 -85 -502 -185 -1179 -176 -1201 3 -8 1 -16 -3
-18 -5 -3 -11 -41 -15 -84 -4 -43 -9 -94 -11 -113 -2 -19 -7 -65 -11 -104 -3
-38 -9 -64 -11 -57 -3 6 -10 9 -16 6 -7 -4 -7 -2 1 7 10 11 8 17 -10 32 -13
10 -18 17 -13 14 6 -3 11 13 12 36 l2 42 -15 -34 c-8 -18 -16 -46 -17 -61 -1
-17 -7 -26 -15 -23 -7 3 -18 0 -26 -6 -11 -9 -13 -2 -10 43 3 58 -10 82 -36
66 -13 -9 -13 -10 0 -11 8 -1 18 -1 23 0 4 0 7 -4 7 -9 0 -6 -6 -10 -12 -11
-10 0 -10 -2 0 -6 6 -2 12 -12 12 -21 0 -13 -2 -14 -9 -4 -5 8 -6 -6 -4 -35 4
-42 2 -51 -21 -72 l-25 -24 -11 27 c-5 15 -10 33 -10 39 -1 15 -29 66 -29 52
0 -14 35 -114 43 -122 3 -3 6 -11 6 -17 0 -15 -25 24 -38 59 -11 30 -11 30
-18 6 -7 -23 -8 -23 -21 -6 -12 17 -13 17 -14 -11 l0 -29 -13 35 c-16 43 -30
125 -16 95 28 -62 2 51 -71 311 -45 159 -86 306 -91 327 -8 28 -13 35 -20 25
-6 -9 -7 -6 -3 9 8 31 -5 79 -17 61 -6 -9 -7 -6 -3 9 8 31 -5 79 -17 61 -7 -9
-8 -5 -5 14 2 15 1 25 -4 23 -10 -7 -22 52 -13 66 5 8 3 9 -6 4 -10 -6 -12 -3
-7 14 3 13 3 20 0 17 -4 -3 -47 128 -96 291 -49 164 -91 306 -94 316 -6 19 -6
19 -27 11 -9 -3 -14 -10 -11 -14 3 -5 1 -12 -5 -15 -6 -4 -10 -3 -9 2 3 20 -2
27 -11 13 -5 -8 -10 -10 -10 -4 0 6 8 18 17 25 13 11 15 11 9 1 -7 -11 -4 -11
13 -1 24 16 11 27 -27 23 -36 -3 -36 -2 -25 -16 5 -7 7 -24 3 -38 -5 -19 -61
138 -222 625 -253 760 -302 914 -294 922 3 4 6 -1 6 -11 0 -10 5 -14 11 -11 6
4 8 14 5 22 -3 8 -2 11 3 8 6 -3 14 3 20 12 7 13 5 23 -7 38 -17 20 -17 20 4
2 11 -9 23 -14 26 -11 3 3 9 0 13 -6 3 -6 1 -9 -6 -8 -6 2 -13 -2 -16 -8 -2
-7 6 -11 19 -10 17 1 23 -4 23 -21 0 -12 4 -25 8 -30 5 -4 7 -2 5 6 -2 9 6 16
17 18 16 3 17 2 5 -6 -13 -9 -13 -11 2 -11 12 0 16 -6 13 -22 -3 -15 -1 -18 6
-11 7 7 3 38 -14 104 -15 55 -22 98 -17 103 6 6 11 4 14 -5 18 -58 42 -116 52
-126 6 -6 40 -112 74 -235 34 -122 98 -326 140 -453 43 -126 93 -284 111 -350
18 -66 35 -113 36 -105 4 16 -78 307 -237 845 -169 573 -162 545 -132 545 20
0 71 -174 248 -840 94 -355 178 -623 234 -745 28 -63 97 -155 116 -155 41 0
122 174 205 442 85 274 177 600 245 868 68 265 88 397 64 425 -11 13 11 15
204 15 175 0 220 -3 232 -14z m-1639 -183 c-4 -3 -1 -13 6 -22 11 -14 10 -14
-5 -2 -16 12 -16 31 -1 31 4 0 3 -3 0 -7z m2761 -68 c-6 -14 -13 -23 -15 -21
-5 5 15 46 22 46 3 0 -1 -11 -7 -25z m-2737 -8 c-10 -9 -11 -8 -5 6 3 10 9 15
12 12 3 -3 0 -11 -7 -18z m-674 -149 c-3 -8 -6 -5 -6 6 -1 11 2 17 5 13 3 -3
4 -12 1 -19z m3248 -318 c-3 -5 -1 -10 6 -10 7 0 10 -3 6 -6 -9 -9 -28 6 -22
17 4 5 8 9 11 9 3 0 2 -4 -1 -10z m-31 -152 c-9 -14 -23 2 -17 18 4 12 8 13
14 3 4 -7 5 -17 3 -21z m-601 -5 c-4 -10 -2 -14 4 -10 5 3 10 0 10 -8 0 -8 -5
-11 -11 -8 -6 4 -3 -2 6 -13 14 -16 15 -23 5 -34 -10 -10 -9 -11 2 -5 11 6 13
4 8 -9 -5 -11 -3 -15 5 -10 8 5 9 2 5 -10 -4 -9 -3 -15 2 -12 4 3 15 -2 23
-12 13 -15 14 -25 2 -77 -8 -33 -16 -80 -20 -105 -15 -111 -91 -414 -270
-1080 -103 -382 -116 -427 -256 -895 -165 -554 -173 -569 -63 -111 36 154 68
300 70 325 2 25 4 46 5 46 1 0 3 8 5 18 3 15 1 16 -11 6 -7 -6 -11 -15 -8 -20
3 -5 0 -9 -6 -9 -6 0 -8 -4 -5 -10 3 -6 1 -10 -4 -10 -6 0 -11 -8 -12 -17 0
-10 -3 -13 -5 -6 -5 12 276 1259 369 1638 42 171 52 203 57 175 5 -35 5 -35
22 25 10 33 27 100 38 149 11 49 23 93 26 97 9 15 14 10 7 -8z m583 -58 c1 -9
-4 -11 -14 -7 -10 4 -12 7 -4 10 7 2 9 9 5 15 -3 7 -2 8 2 4 5 -4 10 -14 11
-22z m-879 -288 c1 -26 0 -28 -7 -12 -7 16 -9 17 -9 3 -1 -9 4 -20 10 -24 6
-3 9 -15 6 -25 -3 -11 -2 -17 3 -14 8 5 25 -42 21 -58 -1 -5 3 -6 7 -3 13 8
40 -26 37 -47 -2 -9 0 -15 5 -12 4 3 11 -2 14 -11 9 -23 7 -34 -4 -34 -5 0 -7
7 -4 15 4 8 2 15 -3 15 -5 0 -9 -11 -9 -24 0 -14 3 -23 7 -20 4 2 6 -4 4 -13
-2 -10 -4 -18 -5 -18 -1 0 -3 -16 -6 -35 -2 -19 -8 -48 -13 -65 -10 -29 -10
-29 -8 10 1 22 7 43 12 47 6 5 6 8 -1 8 -6 0 -10 18 -9 45 1 24 -1 43 -3 41
-2 -3 -4 -8 -4 -13 0 -4 -4 -16 -10 -26 -7 -13 -13 -15 -22 -8 -9 8 -13 7 -13
-4 0 -8 4 -12 8 -9 9 5 29 -28 29 -46 0 -7 -9 -2 -19 11 l-19 24 -11 -28 c-6
-16 -15 -26 -19 -23 -9 5 -11 -3 -14 -59 -1 -20 -5 -32 -11 -28 -6 4 -8 0 -4
-10 4 -11 2 -14 -8 -11 -7 3 -12 15 -10 27 2 12 6 54 10 92 14 160 53 375 67
375 2 0 4 -15 5 -33z m770 -27 c-1 -14 -4 -16 -14 -8 -16 13 -17 22 -1 12 8
-5 9 -2 5 10 -4 9 -3 15 2 11 6 -3 9 -14 8 -25z m-737 -35 c5 3 14 -4 20 -15
6 -11 16 -18 21 -14 7 4 7 -1 0 -14 -16 -30 -14 -36 7 -21 14 11 15 11 5 -1
-10 -11 -10 -17 3 -31 9 -10 14 -24 11 -31 -3 -8 -6 -6 -6 5 -1 11 -6 15 -13
11 -6 -4 -8 -3 -5 3 4 6 -3 19 -15 29 -20 18 -49 74 -47 91 0 4 3 2 6 -5 2 -6
9 -10 13 -7z m77 -87 c-3 -8 -6 -5 -6 6 -1 11 2 17 5 13 3 -3 4 -12 1 -19z
m616 -9 c-8 -8 -13 -7 -18 2 -6 8 -4 10 5 4 10 -6 12 -4 6 11 -6 15 -5 17 5 7
9 -10 10 -16 2 -24z m-686 -134 c0 -8 -4 -12 -9 -9 -5 3 -6 10 -3 15 9 13 12
11 12 -6z m633 -34 c7 -15 7 -22 -2 -27 -7 -4 -10 -4 -6 1 4 4 3 16 -3 26 -5
11 -7 19 -5 19 3 0 10 -9 16 -19z m-1589 -18 c-12 -20 -14 -14 -5 12 4 9 9 14
11 11 3 -2 0 -13 -6 -23z m917 3 c-1 -14 -6 -23 -10 -20 -10 6 -29 -32 -20
-41 4 -5 1 -5 -6 -1 -11 6 -10 12 3 29 9 12 18 30 22 40 8 24 13 21 11 -7z
m-1037 -63 c13 -16 12 -17 -3 -4 -17 13 -22 21 -14 21 2 0 10 -8 17 -17z m84
-16 c-19 -30 -37 -38 -56 -26 -11 7 -9 9 8 9 13 0 30 11 39 25 9 14 19 24 21
21 3 -2 -3 -16 -12 -29z m-265 -113 c0 -8 -19 -13 -24 -6 -3 5 1 9 9 9 8 0 15
-2 15 -3z m43 -44 c3 -11 1 -18 -4 -14 -5 3 -9 12 -9 20 0 20 7 17 13 -6z
m804 -1362 c-3 -8 -6 -5 -6 6 -1 11 2 17 5 13 3 -3 4 -12 1 -19z m3 -134 c0
-89 -13 -154 -31 -154 -4 0 -6 -6 -3 -13 3 -8 -3 -20 -12 -28 -16 -13 -16 -12
-7 6 5 11 9 32 8 47 -1 21 1 25 11 17 16 -13 29 92 22 181 -2 33 -1 55 4 48 4
-7 8 -54 8 -104z m-105 -223 c3 -5 2 -12 -3 -15 -5 -3 -9 1 -9 9 0 17 3 19 12
6z m-33 -105 c-4 -6 -7 -14 -7 -18 0 -19 -11 -14 -11 6 0 12 6 23 13 23 6 0 9
-5 5 -11z m-45 -138 c-3 -8 -6 -5 -6 6 -1 11 2 17 5 13 3 -3 4 -12 1 -19z"/>
<path d="M3935 3823 c-9 -13 -11 -23 -5 -23 5 0 10 6 10 13 0 8 3 7 9 -3 11
-16 4 -33 -10 -25 -16 10 -10 -2 9 -16 9 -7 14 -9 9 -4 -4 4 1 18 11 29 11 12
21 28 24 37 9 25 -40 19 -57 -8z m36 8 c7 11 9 10 9 -3 0 -9 -4 -20 -10 -23
-5 -3 -10 -4 -10 -1 0 2 -2 10 -3 18 -2 7 -2 9 1 4 2 -4 8 -2 13 5z"/>
<path d="M5861 2414 c0 -11 3 -14 6 -6 3 7 2 16 -1 19 -3 4 -6 -2 -5 -13z"/>
<path d="M5700 2787 c0 -9 5 -17 11 -17 5 0 7 -4 4 -10 -3 -5 -1 -10 4 -10 15
0 13 11 -4 34 -13 17 -15 18 -15 3z"/>
<path d="M6295 5087 c-26 -14 -227 -17 -244 -3 -11 8 -13 8 -7 -1 5 -9 -3 -12
-29 -10 -20 2 -59 0 -88 -5 -29 -4 -520 -10 -1092 -14 -572 -3 -1042 -8 -1043
-9 -2 -2 -1 -13 3 -24 12 -39 58 -42 567 -35 266 3 486 8 489 10 4 2 233 4
510 4 305 1 522 5 549 11 45 10 251 24 530 35 118 4 147 8 158 22 6 9 12 20
12 24 0 12 -293 7 -315 -5z"/>
<path d="M3818 4954 c-15 -14 -8 -49 39 -207 38 -125 51 -156 63 -151 8 3 38
8 65 11 28 3 55 10 62 15 19 15 57 244 46 281 -8 29 -13 33 -63 40 -94 13
-205 19 -212 11z"/>
<path d="M7415 4839 c-4 -6 -5 -12 -2 -15 2 -3 7 2 10 11 7 17 1 20 -8 4z"/>
<path d="M4083 4575 c0 -8 4 -15 9 -15 4 0 8 4 8 9 0 6 -4 12 -8 15 -5 3 -9
-1 -9 -9z"/>
<path d="M4512 4543 c37 -2 100 -2 140 0 40 1 10 3 -67 3 -77 0 -110 -1 -73
-3z"/>
<path d="M4763 4543 c9 -2 23 -2 30 0 6 3 -1 5 -18 5 -16 0 -22 -2 -12 -5z"/>
<path d="M3035 4470 c-3 -5 -1 -10 4 -10 6 0 11 5 11 10 0 6 -2 10 -4 10 -3 0
-8 -4 -11 -10z"/>
<path d="M6779 3893 c-13 -16 -12 -17 4 -4 16 13 21 21 13 21 -2 0 -10 -8 -17
-17z"/>
<path d="M3376 3821 c-4 -5 -2 -12 3 -15 5 -4 12 -2 15 3 4 5 2 12 -3 15 -5 4
-12 2 -15 -3z"/>
<path d="M3350 3768 c16 -20 11 -31 -7 -17 -16 13 -17 12 -4 -4 10 -12 17 -15
25 -7 7 7 5 15 -7 25 -9 8 -12 10 -7 3z"/>
<path d="M6696 3673 c-6 -14 -5 -15 5 -6 7 7 10 15 7 18 -3 3 -9 -2 -12 -12z"/>
<path d="M6666 3592 c-4 -7 -2 -12 6 -12 9 0 9 -3 -2 -10 -8 -5 -10 -10 -4
-10 6 0 18 8 25 17 8 9 9 14 2 10 -6 -4 -13 -2 -15 5 -3 9 -6 9 -12 0z"/>
<path d="M6586 3299 c2 -4 0 -10 -6 -14 -5 -3 -10 -12 -10 -18 0 -8 3 -8 9 1
4 8 12 13 16 13 5 -1 10 5 11 12 1 8 -4 14 -12 14 -7 0 -11 -4 -8 -8z"/>
<path d="M6393 2625 c0 -8 4 -12 9 -9 5 3 6 10 3 15 -9 13 -12 11 -12 -6z"/>
<path d="M6376 2585 c-9 -26 -7 -32 5 -12 6 10 9 21 6 23 -2 3 -7 -2 -11 -11z"/>
<path d="M5225 561 c-3 -5 -2 -12 3 -15 5 -3 9 1 9 9 0 17 -3 19 -12 6z"/>
<path d="M5201 477 c2 -1 13 -9 24 -17 19 -14 19 -14 6 3 -7 9 -18 17 -24 17
-6 0 -8 -1 -6 -3z"/>
<path d="M5196 445 c-4 -11 -4 -16 0 -13 4 4 15 3 25 -3 13 -6 19 -6 19 1 0 5
-6 10 -14 10 -8 0 -16 5 -18 12 -3 7 -7 4 -12 -7z"/>
<path d="M5186 86 c-8 -18 -19 -37 -25 -40 -6 -4 -11 -11 -11 -17 0 -13 17
-11 23 4 3 6 12 29 21 50 9 20 14 37 11 37 -2 0 -11 -15 -19 -34z"/>
</g>
</svg>
